# xmcd
#
# Track frame offsets:
# 150
# 19272
# 40081
# 57949
# 74914
# 90457
# 105535
# 125980
# 141891
# 160588
# 179659
# 196951
# 211589
# 228499
# 245333
#
# Disc length: 3498 seconds
#
#
# Revision: 1
# Processed by: cddbd v1.5.1PL2 Copyright (c) Steve Scherf et al.
# Submitted via: FreeRIP 2.945 
#
DISCID=d60da80f
DTITLE=KCM3집 - Love affair
DYEAR=2006
DGENRE=R&B
TTITLE0=태양의 눈물(Tear of the sum)
TTITLE1=마지막 은영이에게
TTITLE2=One&Only
TTITLE3=일년전 오늘
TTITLE4=익숙한것과의 이별
TTITLE5=Destiny
TTITLE6=하루 열흘 한달 또다시 일년
TTITLE7=천국의 계단
TTITLE8=내가 사랑한 12가지 버릇
TTITLE9=그림자
TTITLE10=그래도 사랑해
TTITLE11=My Fair Lady
TTITLE12=그대곁으로
TTITLE13=Turn Around
TTITLE14=고맙습니다
EXTD=
EXTT0=
EXTT1=
EXTT2=
EXTT3=
EXTT4=
EXTT5=
EXTT6=
EXTT7=
EXTT8=
EXTT9=
EXTT10=
EXTT11=
EXTT12=
EXTT13=
EXTT14=
PLAYORDER=
